:SAMPLES-PER-SECOND 30
:FULLY-SPECIFIED
:DEGREES
1849
root  -56.398 40.147 17.715 178.535 -47.2843 174.807
RightUpLeg  -12.633 -19.9671 -10.3931
RightLeg  23.0864 0.11663 -0.19784
RightFoot  -2.83523 -0.510664 6.59255
RightToes  3.49245e-010 0 -3.6325e-017
Spine  14.4661 -1.31858 -3.53792
Spine1  5.6375 -2.22874 1.11496
HEad  -34.2382 -7.29297 7.07718
LeftShoulder1  0.247171 2.77352 -27.7467
LeftArm  -11.0833 5.23818 -39.3443
LeftForeArm  9.4657 -25.2347 -4.86024
LeftHand  -0.0397415 5.08669 7.53891
RightShoulder  -0.506568 -5.09765 24.9147
RightArm  3.35754 -10.6777 42.71
RightForeArm  -3.17465 33.8129 7.72222
RightHand  -0.700737 5.9383 -7.49247
LeftUpLeg  -1.73281 7.73907 0.370537
LeftLeg  13.1028 -0.237139 -0.934231
LeftFoot  -5.0386 -0.0982174 2.3717
LeftToes  -2.21735e-009 9.83027e-011 -4.04511e-011
1850
root  -55.8134 40.1863 18.099 178.232 -45.017 174.792
RightUpLeg  -10.5812 -19.7416 -12.4872
RightLeg  28.7547 -1.26593 -0.991297
RightFoot  -4.21243 -0.351417 5.1765
RightToes  3.49245e-010 0 -3.6325e-017
Spine  14.0383 -1.33332 -3.68016
Spine1  5.38641 -2.35596 1.12993
HEad  -32.7526 -7.90558 7.18214
LeftShoulder1  0.281924 2.64195 -26.4987
LeftArm  -13.9774 6.06997 -38.5985
LeftForeArm  11.0134 -29.977 -5.92226
LeftHand  -0.081313 4.3928 7.60052
RightShoulder  -0.6354 -5.45544 25.8591
RightArm  4.29232 -10.3389 42.1875
RightForeArm  -0.509984 39.3393 9.21298
RightHand  -0.779351 6.07374 -8.19311
LeftUpLeg  -1.43981 7.5849 0.611606
LeftLeg  11.3442 2.11375 -0.753453
LeftFoot  -3.8381 -0.0501515 1.10084
LeftToes  -2.21735e-009 9.83027e-011 -4.04511e-011
1851
root  -55.2428 40.1923 18.4478 178.231 -42.4987 174.839
RightUpLeg  -8.42736 -19.8161 -14.7458
RightLeg  32.8558 -3.06434 -2.36371
RightFoot  -5.60764 -0.221579 3.65252
RightToes  3.49245e-010 0 -3.6325e-017
Spine  12.9526 -1.36548 -3.01747
Spine1  5.5087 -2.33403 0.940507
HEad  -32.1282 -8.58687 7.73777
LeftShoulder1  0.23665 2.78291 -26.6469
LeftArm  -16.7037 6.61255 -37.5314
LeftForeArm  13.8473 -34.4198 -6.89483
LeftHand  -0.132836 3.47764 7.23932
RightShoulder  -0.561033 -5.25847 25.2136
RightArm  4.2752 -10.7255 43.0993
RightForeArm  2.47436 43.6577 10.5258
RightHand  -0.866862 6.39183 -8.8623
LeftUpLeg  -1.77043 8.04088 1.10797
LeftLeg  10.3417 3.94727 -0.91677
LeftFoot  -2.82414 -0.0469557 0.860538
LeftToes  -2.21735e-009 9.83027e-011 -4.04511e-011
1852
root  -54.6509 40.1704 18.7381 178.196 -39.5505 174.783
RightUpLeg  -5.94939 -18.9351 -17.1518
RightLeg  34.8695 -3.6087 -2.93695
RightFoot  -6.52467 -0.11671 1.74024
RightToes  3.49245e-010 0 -3.6325e-017
Spine  12.1033 -1.20709 -2.74486
Spine1  5.61115 -2.24638 1.0445
HEad  -31.7767 -8.65212 7.86536
LeftShoulder1  0.15629 3.03015 -26.7897
LeftArm  -18.5331 7.56403 -36.863
LeftForeArm  15.9096 -38.4434 -7.90396
LeftHand  -0.129836 3.53749 7.30565
RightShoulder  -0.495833 -5.06769 24.8636
RightArm  5.03019 -10.5872 43.549
RightForeArm  5.34973 46.8324 11.5818
RightHand  -0.808918 5.41198 -8.98094
LeftUpLeg  -2.07553 8.3419 1.50726
LeftLeg  9.69943 6.36726 -0.647103
LeftFoot  -1.83125 -0.0313745 0.507571
LeftToes  -2.21735e-009 9.83027e-011 -4.04511e-011
1853
root  -54.0238 40.1253 19.0635 178.615 -35.5307 174.684
RightUpLeg  -4.34232 -18.1142 -19.3328
RightLeg  34.3577 -2.23703 -1.90409
RightFoot  -7.52726 -0.0965811 1.38544
RightToes  3.49245e-010 0 -3.6325e-017
Spine  11.4777 -0.861165 -1.22268
Spine1  5.04707 -1.50183 -0.063613
HEad  -31.5446 -8.99 7.80311
LeftShoulder1  0.092679 3.22361 -26.889
LeftArm  -19.1985 8.63489 -36.215
LeftForeArm  16.5495 -41.0877 -8.68286
LeftHand  -0.159204 3.21563 7.85663
RightShoulder  -0.423474 -4.86577 24.1941
RightArm  5.65224 -10.5171 44.5816
RightForeArm  7.79667 48.3961 12.0805
RightHand  -0.822904 5.79386 -8.83952
LeftUpLeg  -2.85464 9.27437 2.37936
LeftLeg  9.41125 9.16634 -1.10636
LeftFoot  -1.21291 0.00620811 0.015772
LeftToes  -2.21735e-009 9.83027e-011 -4.04511e-011
